# xmcd
#
# Track frame offsets: 
#        150
#        14218
#        33105
#        48955
#        64153
#        76588
#        96920
#        115263
#        127020
#        143440
#        160553
#        174303
#
# Disc length: 2466 seconds
#
# Revision: 1
# Processed by: cddbd v1.5.1PL2 Copyright (c) Steve Scherf et al.
# Submitted via: ExactAudioCopy v0.95b2
#
DISCID=8f09a00c
DTITLE=Pianolight Music - Pianolight And... Volume 1 - Guitar on Broad
DTITLE=way
DYEAR=1996
DGENRE=Instrumental
TTITLE0=With One Look (from Sunset Blvd.)
TTITLE1=Try to Remember (from The Fantastics)
TTITLE2=Unexpected Song (from Song and Dance)
TTITLE3=Sunrise Sunset (from Fiddler on the Roof)
TTITLE4=I've Never Been In Love Before (from Guys and Dolls)
TTITLE5=Think of Me (from The Phantom of the Opera)
TTITLE6=If Ever I Would Leave You (from Camelot)
TTITLE7=Tonight (from West Side Story)
TTITLE8=Bring Him Home (from Les Miserables)
TTITLE9=Look To The Rainbow (from Finian's Rainbow)
TTITLE10=Till There Was You (from The Music Man)
TTITLE11=Give my Regards To Broadway
EXTD=
EXTT0=
EXTT1=
EXTT2=
EXTT3=
EXTT4=
EXTT5=
EXTT6=
EXTT7=
EXTT8=
EXTT9=
EXTT10=
EXTT11=
PLAYORDER=
